PathFileType	4	(X/Y/Z)	E:\3-PhD\Data\MocapData\ElaboratedData\015\pre\dynamicElaborations\Run_baselineA1\Run_baselineA1.trc
DataRate	CameraRate	NumFrames	NumMarkers	Units	OrigDataRate	OrigDataStartFrame	OrigNumFrames
200	200	4	61	mm	200	8.550000e+02	99
Frame#	Time	FHD			LBHD			RBHD			C7			T10			CLAV			LSHO			LUUPA			LMUPA			LDUPA			LLEP			LMEP			LRAD			LUL			LRFIN			RSHO			RUPA1			RMUPA			RDUPA			RLEP			RMEP			RRAD			RUL			RUFIN			LASI			RASI			USACR			LSACR			RSACR			LTHI1			LTHI2			LTHI3			LTHI4			LLFC			LMFC			LTIB1			LTIB2			LTIB3			LTIB4			LLMAL			LMMAL			LHEE			LMT1			LMT5			LMT2			RTHI			RTHI2			RTHI3			RTHI4			RLFC			RMFC			RTIB1			RTIB2			RTIB3			RTIB4			RLMAL			RMMAL			RHEE			RMT1			RMT2			RMT5		
		X1	Y1	Z1	X2	Y2	Z2	X3	Y3	Z3	X4	Y4	Z4	X5	Y5	Z5	X6	Y6	Z6	X7	Y7	Z7	X8	Y8	Z8	X9	Y9	Z9	X10	Y10	Z10	X11	Y11	Z11	X12	Y12	Z12	X13	Y13	Z13	X14	Y14	Z14	X15	Y15	Z15	X16	Y16	Z16	X17	Y17	Z17	X18	Y18	Z18	X19	Y19	Z19	X20	Y20	Z20	X21	Y21	Z21	X22	Y22	Z22	X23	Y23	Z23	X24	Y24	Z24	X25	Y25	Z25	X26	Y26	Z26	X27	Y27	Z27	X28	Y28	Z28	X29	Y29	Z29	X30	Y30	Z30	X31	Y31	Z31	X32	Y32	Z32	X33	Y33	Z33	X34	Y34	Z34	X35	Y35	Z35	X36	Y36	Z36	X37	Y37	Z37	X38	Y38	Z38	X39	Y39	Z39	X40	Y40	Z40	X41	Y41	Z41	X42	Y42	Z42	X43	Y43	Z43	X44	Y44	Z44	X45	Y45	Z45	X46	Y46	Z46	X47	Y47	Z47	X48	Y48	Z48	X49	Y49	Z49	X50	Y50	Z50	X51	Y51	Z51	X52	Y52	Z52	X53	Y53	Z53	X54	Y54	Z54	X55	Y55	Z55	X56	Y56	Z56	X57	Y57	Z57	X58	Y58	Z58	X59	Y59	Z59	X60	Y60	Z60	X61	Y61	Z61	
916	4.575000	-2192.727870	1480.517171	299.362327	-2328.503279	1531.235520	284.798241	-2343.304653	1525.082428	411.076840	-2466.436213	1443.670262	323.686151	-2637.880217	1161.382803	251.385225	-2367.539479	1315.697971	326.958691	-2379.526538	1422.228513	154.252791	-2415.181604	1274.732251	26.301520	-2398.539758	1230.712132	35.843064	-2429.970958	1220.062419	-13.324782	-2473.611124	1156.047484	-50.731689	-2534.465271	1131.505199	28.652944	-2311.646206	1005.804852	96.846229	-2319.803680	1065.039731	138.874863	-2243.633925	1044.390165	175.964486	-2432.445048	1376.762483	509.281455	-2566.223497	1293.736861	608.624788	-2563.350278	1246.264966	613.304293	-2617.502773	1255.413564	638.889852	-2688.785779	1180.901290	664.319207	-2727.009793	1189.122082	592.068255	-2546.894849	962.758804	578.299586	-2594.260249	917.265153	615.402209	-2490.691957	906.554716	600.747048	-2531.133129	943.843887	151.845164	-2558.686860	970.923832	389.668745	-2693.496061	1062.476113	248.415164	-2703.684034	1030.655896	221.202086	-2712.462736	1035.275382	276.562059	-2687.261619	664.895969	94.867012	-2675.384301	582.820959	105.192964	-2631.483797	570.363733	116.359543	-2716.014538	539.284070	122.750571	-2760.587787	472.738909	141.067961	-2767.522967	480.055520	262.988415	-2900.081806	383.524269	175.714541	-2954.077261	435.179698	125.628036	-2949.053935	398.024585	146.110436	-3029.679081	384.472426	176.085899	-3158.167180	425.907118	146.674006	-3149.094183	419.368909	235.220921	-3208.676518	496.030963	188.768877	-3203.569235	290.753378	240.685546	-3232.428933	310.118531	139.718081	-3202.376867	282.180897	192.334116	-2525.312466	820.305721	463.617267	-2465.171776	797.171767	451.707503	-2444.844001	813.838007	428.700179	-2443.522415	715.168257	459.002243	-2380.403972	532.163760	419.501424	-2371.657177	536.520551	297.384509	-2319.939760	330.326568	371.992641	-2382.572280	250.192383	415.980592	-2339.242299	249.340113	396.737304	-2331.079587	202.586974	365.120228	-2376.719395	126.516838	393.246896	-2372.858647	143.721020	310.628223	-2449.243694	60.909550	339.598278	-2228.212583	111.160940	333.189675	-2235.059093	104.895452	373.851697	-2268.588071	62.715954	422.324672	
917	4.580000	-2164.580858	1480.319339	299.415397	-2300.289357	1531.017825	285.008811	-2314.882809	1524.753075	411.333230	-2437.521559	1443.681125	325.094107	-2610.474018	1162.658380	253.168161	-2339.696667	1315.376914	326.803799	-2352.830205	1421.349100	154.043814	-2393.176987	1275.218820	25.180488	-2377.587650	1230.724686	34.213931	-2409.673388	1221.061390	-14.703862	-2454.623103	1158.774515	-52.052180	-2515.119425	1134.939158	27.526180	-2296.869054	996.389601	87.842115	-2301.439685	1054.476727	131.939841	-2225.805091	1028.737467	167.048257	-2404.155502	1374.012875	510.522220	-2537.380696	1284.979006	609.275056	-2532.403393	1237.644700	613.292661	-2586.929437	1244.080429	639.015853	-2655.225872	1166.765883	663.255570	-2694.138747	1175.074938	591.168797	-2507.180736	955.310355	572.779440	-2552.900754	907.830699	609.416575	-2449.291739	900.627465	594.301048	-2502.774813	945.428336	153.626104	-2531.762365	971.872798	391.345271	-2665.766167	1063.215296	249.104634	-2675.679769	1031.436603	221.711106	-2684.724740	1035.816211	277.080811	-2653.051446	662.173999	94.924969	-2638.240062	580.460289	104.344614	-2593.897828	568.989846	115.406419	-2677.147563	535.463128	122.398679	-2718.841068	469.754573	140.338364	-2724.845375	475.172821	262.567177	-2859.556195	386.187813	175.077058	-2911.760601	440.848673	125.848065	-2908.081885	403.215465	145.876155	-2989.083229	392.708274	176.098303	-3115.454555	439.966030	147.825365	-3106.383030	431.676607	236.246311	-3163.910394	511.059446	191.407637	-3164.435737	304.556004	239.211255	-3192.731669	326.649406	138.635466	-3163.489510	296.907435	190.635178	-2501.023949	816.341971	465.945439	-2441.333605	791.660763	454.760579	-2420.093414	807.980943	432.273013	-2422.219894	708.938821	461.347208	-2362.196343	525.128678	421.155409	-2352.278872	529.939401	299.019443	-2304.560691	322.274177	373.183823	-2368.716538	243.093278	416.415851	-2325.274675	241.621228	397.533261	-2317.591402	194.867863	365.753290	-2364.440210	119.564304	393.148091	-2359.759568	136.858762	310.678340	-2438.051107	56.661204	338.994604	-2216.004894	101.404414	334.193354	-2223.121567	95.111993	374.616241	-2257.919675	54.119849	423.149488	
918	4.585000	-2136.595074	1479.978453	299.264912	-2272.257692	1530.659156	285.096329	-2286.580184	1524.302710	411.474779	-2408.861818	1443.433674	326.581353	-2583.068175	1163.480730	255.120153	-2311.968903	1314.756074	326.521652	-2326.427014	1420.294001	153.814936	-2371.323741	1275.476819	24.316292	-2356.984761	1230.447781	32.956825	-2389.397889	1221.895708	-15.845720	-2435.549104	1161.367644	-53.266709	-2495.615954	1138.081455	26.462697	-2282.719538	987.095686	78.372247	-2283.734553	1043.773726	124.557038	-2208.911899	1012.996153	157.435400	-2375.802192	1370.947338	511.756269	-2508.130360	1275.786232	609.836395	-2501.019759	1228.673504	613.178313	-2555.810855	1232.366038	639.001723	-2620.936727	1152.179351	661.976328	-2660.617702	1160.544286	590.126394	-2466.779429	948.104425	566.811384	-2510.667515	898.582041	602.921194	-2407.133174	895.094230	587.332393	-2474.547494	946.763947	155.344703	-2504.766297	972.464985	393.035799	-2638.138063	1063.564226	249.959809	-2647.793459	1031.816153	222.409767	-2657.054435	1036.000629	277.804059	-2618.488584	659.335668	94.975725	-2600.629956	578.087195	103.450709	-2555.852336	567.639090	114.400541	-2637.668852	531.648388	122.078873	-2676.362792	466.800213	139.557554	-2681.473335	470.432511	262.241277	-2817.837421	388.686227	174.600201	-2868.199579	445.941884	126.078508	-2865.828506	407.949619	145.741909	-2947.056446	400.350018	176.237872	-3071.184330	453.032975	148.952178	-3062.225776	443.072318	237.263418	-3117.966882	524.856853	193.970900	-3123.307589	317.290619	237.653519	-3150.902091	342.007863	137.454254	-3122.479329	310.588446	188.862801	-2476.817075	812.318970	468.223032	-2417.592096	786.194665	457.812228	-2395.437103	802.167010	435.898748	-2400.976993	702.786662	463.485662	-2344.412399	518.240850	422.645119	-2333.128342	523.581235	300.545701	-2290.487623	314.165919	374.479849	-2356.869658	236.356849	416.531439	-2313.258010	234.027182	398.216935	-2306.211660	187.249390	366.247413	-2354.578621	113.331360	392.720992	-2349.056350	130.329372	310.303753	-2429.549359	53.300738	338.277982	-2206.389065	91.869929	334.978104	-2213.766264	85.860100	375.249798	-2249.937796	46.467967	424.071847	
919	4.590000	-2108.778812	1479.547527	298.916461	-2244.426469	1530.197422	285.073415	-2258.411540	1523.765999	411.512224	-2380.520639	1442.925638	328.156606	-2555.669159	1163.840542	257.186978	-2284.336557	1313.857265	326.129743	-2300.327658	1419.133322	153.570886	-2349.580806	1275.536741	23.719833	-2336.706988	1229.895870	32.104235	-2369.091032	1222.578366	-16.733102	-2416.349899	1163.835075	-54.370293	-2475.977737	1140.930544	25.442847	-2269.157994	978.064368	68.480032	-2266.690455	1033.074903	116.751726	-2192.958826	997.364684	147.163429	-2347.394328	1367.605266	512.975044	-2478.392666	1266.218250	610.301021	-2469.160786	1219.410350	612.919037	-2524.086598	1220.351775	638.825969	-2585.881286	1137.244185	660.448120	-2626.411515	1145.610945	588.941174	-2425.730567	941.254070	560.388914	-2467.598742	889.646596	595.915322	-2364.272607	890.078033	579.831320	-2446.454047	947.798284	156.994673	-2477.720299	972.669429	394.732727	-2610.635430	1063.538731	250.976649	-2620.049077	1031.806380	223.298269	-2629.481973	1035.848050	278.731089	-2583.495085	656.391562	95.016675	-2562.519034	575.720151	102.545026	-2517.315642	566.363054	113.371726	-2597.560519	527.893795	121.810587	-2633.160421	463.929243	138.766576	-2637.399291	465.931145	262.062161	-2774.976509	391.025613	174.299564	-2823.499430	450.420053	126.291769	-2822.381805	412.198559	145.722408	-2903.706979	407.363899	176.506443	-3025.526620	465.026626	150.016858	-3016.789983	453.536991	238.231013	-3071.037845	537.389680	196.359612	-3080.348371	328.916940	236.067452	-3107.111395	356.067300	136.215691	-3079.500958	323.132966	187.082149	-2452.681941	808.310426	470.423811	-2393.965259	780.789018	460.827855	-2370.901002	796.410257	439.536586	-2379.790407	696.749717	465.431816	-2327.082894	511.402530	423.984289	-2314.271093	517.336495	301.937794	-2277.568068	306.133954	375.732458	-2346.728422	230.084764	416.269678	-2302.936189	226.691225	398.648856	-2296.710804	179.894181	366.442073	-2346.874751	107.981879	391.877084	-2340.554415	124.286153	309.424524	-2423.393007	50.799126	337.394813	-2199.126531	83.001218	335.449727	-2206.741595	77.548213	375.660939	-2244.289338	40.084088	424.991893	
